<?xml version="1.0" standalone="no"?>
<!DOCTYPE svg PUBLIC "-//W3C//DTD SVG 20010904//EN"
 "http://www.w3.org/TR/2001/REC-SVG-20010904/DTD/svg10.dtd">
<svg version="1.0" xmlns="http://www.w3.org/2000/svg"
 width="320.000000pt" height="320.000000pt" viewBox="0 0 320.000000 320.000000"
 preserveAspectRatio="xMidYMid meet">

<g transform="translate(0.000000,320.000000) scale(0.100000,-0.100000)"
fill="#000000" stroke="none">
<path d="M1325 3185 c-329 -62 -603 -201 -836 -423 -54 -52 -109 -107 -120
-123 l-20 -29 265 -262 266 -263 0 -455 0 -455 153 -128 152 -127 3 420 c1
231 6 420 10 420 8 0 1202 -1192 1202 -1201 0 -11 -135 -96 -216 -137 -107
-53 -205 -87 -327 -114 -143 -30 -369 -30 -514 1 -265 56 -472 168 -664 360
-192 192 -305 400 -360 664 -31 144 -31 370 0 514 25 119 59 219 108 317 l35
69 -114 114 -114 114 -51 -93 c-62 -114 -116 -247 -151 -376 -24 -91 -26 -113
-30 -371 -3 -250 -2 -282 18 -373 126 -590 581 -1065 1170 -1223 92 -24 104
-25 410 -25 303 0 318 1 407 25 281 75 509 205 720 409 62 60 113 114 113 120
0 6 -103 115 -230 241 l-230 230 0 450 0 450 -152 128 -153 127 -3 -415 c-1
-228 -6 -415 -10 -415 -4 0 -292 285 -641 634 l-633 633 59 42 c83 60 283 156
386 186 353 101 721 54 1034 -131 102 -60 174 -117 266 -211 388 -394 485
-990 242 -1484 l-43 -87 113 -112 113 -112 42 72 c84 144 165 358 189 501 16
98 14 558 -3 639 -68 320 -231 608 -474 842 -212 203 -477 344 -782 413 -101
23 -502 30 -605 10z m685 -1963 l185 -180 5 393 5 394 23 -17 22 -17 -2 -442
-3 -441 -587 584 c-323 321 -589 584 -592 584 -3 0 -7 -185 -8 -410 l-3 -410
-22 15 -23 16 0 462 0 462 408 -407 c224 -223 490 -487 592 -586z"/>
</g>
</svg>
